<?xml version="1.0" encoding="UTF-8" standalone="no"?>
<!-- Created with Inkscape (http://www.inkscape.org/) -->

<svg
   xmlns:dc="http://purl.org/dc/elements/1.1/"
   xmlns:cc="http://creativecommons.org/ns#"
   xmlns:rdf="http://www.w3.org/1999/02/22-rdf-syntax-ns#"
   xmlns:svg="http://www.w3.org/2000/svg"
   xmlns="http://www.w3.org/2000/svg"
   xmlns:sodipodi="http://sodipodi.sourceforge.net/DTD/sodipodi-0.dtd"
   xmlns:inkscape="http://www.inkscape.org/namespaces/inkscape"
   id="svg3366"
   version="1.1"
   inkscape:version="0.91 r13725"
   xml:space="preserve"
   width="1126.1222"
   height="226.30972"
   viewBox="0 0 1126.1222 226.30972"
   sodipodi:docname="graphic_for_readme_Entity_Relationship_Diagram.svg"><metadata
     id="metadata3372"><rdf:RDF><cc:Work
         rdf:about=""><dc:format>image/svg+xml</dc:format><dc:type
           rdf:resource="http://purl.org/dc/dcmitype/StillImage" /><dc:title></dc:title></cc:Work></rdf:RDF></metadata><defs
     id="defs3370"><clipPath
       clipPathUnits="userSpaceOnUse"
       id="clipPath3380"><path
         d="m 0,1.2207e-4 960,0 0,539.99999793 -960,0 L 0,1.2207e-4 Z"
         id="path3382"
         inkscape:connector-curvature="0"
         style="clip-rule:evenodd" /></clipPath><clipPath
       clipPathUnits="userSpaceOnUse"
       id="clipPath3400"><path
         d="M 1.4305e-5,0 960.00001,0 l 0,540 -959.999995695,0 0,-540 z"
         id="path3402"
         inkscape:connector-curvature="0"
         style="clip-rule:evenodd" /></clipPath><clipPath
       clipPathUnits="userSpaceOnUse"
       id="clipPath3412"><path
         d="M 1.4305e-5,0 960.00001,0 l 0,540 -959.999995695,0 0,-540 z"
         id="path3414"
         inkscape:connector-curvature="0"
         style="clip-rule:evenodd" /></clipPath><clipPath
       clipPathUnits="userSpaceOnUse"
       id="clipPath3424"><path
         d="M 1.4305e-5,0 960.00001,0 l 0,540 -959.999995695,0 0,-540 z"
         id="path3426"
         inkscape:connector-curvature="0"
         style="clip-rule:evenodd" /></clipPath><clipPath
       clipPathUnits="userSpaceOnUse"
       id="clipPath3436"><path
         d="M 1.4305e-5,0 960.00001,0 l 0,540 -959.999995695,0 0,-540 z"
         id="path3438"
         inkscape:connector-curvature="0"
         style="clip-rule:evenodd" /></clipPath><clipPath
       clipPathUnits="userSpaceOnUse"
       id="clipPath3448"><path
         d="M 1.4305e-5,0 960.00001,0 l 0,540 -959.999995695,0 0,-540 z"
         id="path3450"
         inkscape:connector-curvature="0"
         style="clip-rule:evenodd" /></clipPath><clipPath
       clipPathUnits="userSpaceOnUse"
       id="clipPath3460"><path
         d="M 1.4305e-5,0 960.00001,0 l 0,540 -959.999995695,0 0,-540 z"
         id="path3462"
         inkscape:connector-curvature="0"
         style="clip-rule:evenodd" /></clipPath><clipPath
       clipPathUnits="userSpaceOnUse"
       id="clipPath3472"><path
         d="M 1.4305e-5,0 960.00001,0 l 0,540 -959.999995695,0 0,-540 z"
         id="path3474"
         inkscape:connector-curvature="0"
         style="clip-rule:evenodd" /></clipPath><clipPath
       clipPathUnits="userSpaceOnUse"
       id="clipPath3494"><path
         d="M 1.4305e-5,0 960.00001,0 l 0,540 -959.999995695,0 0,-540 z"
         id="path3496"
         inkscape:connector-curvature="0"
         style="clip-rule:evenodd" /></clipPath><clipPath
       clipPathUnits="userSpaceOnUse"
       id="clipPath3506"><path
         d="M 1.4305e-5,0 960.00001,0 l 0,540 -959.999995695,0 0,-540 z"
         id="path3508"
         inkscape:connector-curvature="0"
         style="clip-rule:evenodd" /></clipPath><clipPath
       clipPathUnits="userSpaceOnUse"
       id="clipPath3518"><path
         d="M 1.4305e-5,0 960.00001,0 l 0,540 -959.999995695,0 0,-540 z"
         id="path3520"
         inkscape:connector-curvature="0"
         style="clip-rule:evenodd" /></clipPath><clipPath
       clipPathUnits="userSpaceOnUse"
       id="clipPath3530"><path
         d="M 1.4305e-5,0 960.00001,0 l 0,540 -959.999995695,0 0,-540 z"
         id="path3532"
         inkscape:connector-curvature="0"
         style="clip-rule:evenodd" /></clipPath><clipPath
       clipPathUnits="userSpaceOnUse"
       id="clipPath3542"><path
         d="M 1.4305e-5,0 960.00001,0 l 0,540 -959.999995695,0 0,-540 z"
         id="path3544"
         inkscape:connector-curvature="0"
         style="clip-rule:evenodd" /></clipPath><clipPath
       clipPathUnits="userSpaceOnUse"
       id="clipPath3554"><path
         d="M 1.4305e-5,0 960.00001,0 l 0,540 -959.999995695,0 0,-540 z"
         id="path3556"
         inkscape:connector-curvature="0"
         style="clip-rule:evenodd" /></clipPath><clipPath
       clipPathUnits="userSpaceOnUse"
       id="clipPath3566"><path
         d="M 1.4305e-5,0 960.00001,0 l 0,540 -959.999995695,0 0,-540 z"
         id="path3568"
         inkscape:connector-curvature="0"
         style="clip-rule:evenodd" /></clipPath><clipPath
       clipPathUnits="userSpaceOnUse"
       id="clipPath3588"><path
         d="M 1.4305e-5,0 960.00001,0 l 0,540 -959.999995695,0 0,-540 z"
         id="path3590"
         inkscape:connector-curvature="0"
         style="clip-rule:evenodd" /></clipPath><clipPath
       clipPathUnits="userSpaceOnUse"
       id="clipPath3600"><path
         d="M 1.4305e-5,0 960.00001,0 l 0,540 -959.999995695,0 0,-540 z"
         id="path3602"
         inkscape:connector-curvature="0"
         style="clip-rule:evenodd" /></clipPath><clipPath
       clipPathUnits="userSpaceOnUse"
       id="clipPath3612"><path
         d="M 1.4305e-5,0 960.00001,0 l 0,540 -959.999995695,0 0,-540 z"
         id="path3614"
         inkscape:connector-curvature="0"
         style="clip-rule:evenodd" /></clipPath><clipPath
       clipPathUnits="userSpaceOnUse"
       id="clipPath3624"><path
         d="M 1.4305e-5,0 960.00001,0 l 0,540 -959.999995695,0 0,-540 z"
         id="path3626"
         inkscape:connector-curvature="0"
         style="clip-rule:evenodd" /></clipPath><clipPath
       clipPathUnits="userSpaceOnUse"
       id="clipPath3636"><path
         d="M 1.4305e-5,0 960.00001,0 l 0,540 -959.999995695,0 0,-540 z"
         id="path3638"
         inkscape:connector-curvature="0"
         style="clip-rule:evenodd" /></clipPath><clipPath
       clipPathUnits="userSpaceOnUse"
       id="clipPath3648"><path
         d="M 1.4305e-5,0 960.00001,0 l 0,540 -959.999995695,0 0,-540 z"
         id="path3650"
         inkscape:connector-curvature="0"
         style="clip-rule:evenodd" /></clipPath><clipPath
       clipPathUnits="userSpaceOnUse"
       id="clipPath3660"><path
         d="M 1.4305e-5,0 960.00001,0 l 0,540 -959.999995695,0 0,-540 z"
         id="path3662"
         inkscape:connector-curvature="0"
         style="clip-rule:evenodd" /></clipPath><clipPath
       clipPathUnits="userSpaceOnUse"
       id="clipPath3682"><path
         d="M 1.4305e-5,0 960.00001,0 l 0,540 -959.999995695,0 0,-540 z"
         id="path3684"
         inkscape:connector-curvature="0"
         style="clip-rule:evenodd" /></clipPath><clipPath
       clipPathUnits="userSpaceOnUse"
       id="clipPath3694"><path
         d="M 1.4305e-5,0 960.00001,0 l 0,540 -959.999995695,0 0,-540 z"
         id="path3696"
         inkscape:connector-curvature="0"
         style="clip-rule:evenodd" /></clipPath><clipPath
       clipPathUnits="userSpaceOnUse"
       id="clipPath3706"><path
         d="M 1.4305e-5,0 960.00001,0 l 0,540 -959.999995695,0 0,-540 z"
         id="path3708"
         inkscape:connector-curvature="0"
         style="clip-rule:evenodd" /></clipPath><clipPath
       clipPathUnits="userSpaceOnUse"
       id="clipPath3718"><path
         d="M 1.4305e-5,0 960.00001,0 l 0,540 -959.999995695,0 0,-540 z"
         id="path3720"
         inkscape:connector-curvature="0"
         style="clip-rule:evenodd" /></clipPath><clipPath
       clipPathUnits="userSpaceOnUse"
       id="clipPath3730"><path
         d="M 1.4305e-5,0 960.00001,0 l 0,540 -959.999995695,0 0,-540 z"
         id="path3732"
         inkscape:connector-curvature="0"
         style="clip-rule:evenodd" /></clipPath><clipPath
       clipPathUnits="userSpaceOnUse"
       id="clipPath3742"><path
         d="M 1.4305e-5,0 960.00001,0 l 0,540 -959.999995695,0 0,-540 z"
         id="path3744"
         inkscape:connector-curvature="0"
         style="clip-rule:evenodd" /></clipPath><clipPath
       clipPathUnits="userSpaceOnUse"
       id="clipPath3754"><path
         d="M 1.4305e-5,0 960.00001,0 l 0,540 -959.999995695,0 0,-540 z"
         id="path3756"
         inkscape:connector-curvature="0"
         style="clip-rule:evenodd" /></clipPath><clipPath
       clipPathUnits="userSpaceOnUse"
       id="clipPath3776"><path
         d="M 1.4305e-5,0 960.00001,0 l 0,540 -959.999995695,0 0,-540 z"
         id="path3778"
         inkscape:connector-curvature="0"
         style="clip-rule:evenodd" /></clipPath><clipPath
       clipPathUnits="userSpaceOnUse"
       id="clipPath3788"><path
         d="M 1.4305e-5,0 960.00001,0 l 0,540 -959.999995695,0 0,-540 z"
         id="path3790"
         inkscape:connector-curvature="0"
         style="clip-rule:evenodd" /></clipPath><clipPath
       clipPathUnits="userSpaceOnUse"
       id="clipPath3800"><path
         d="M 1.4305e-5,0 960.00001,0 l 0,540 -959.999995695,0 0,-540 z"
         id="path3802"
         inkscape:connector-curvature="0"
         style="clip-rule:evenodd" /></clipPath><clipPath
       clipPathUnits="userSpaceOnUse"
       id="clipPath3822"><path
         d="M 1.4305e-5,0 960.00001,0 l 0,540 -959.999995695,0 0,-540 z"
         id="path3824"
         inkscape:connector-curvature="0"
         style="clip-rule:evenodd" /></clipPath><clipPath
       clipPathUnits="userSpaceOnUse"
       id="clipPath3834"><path
         d="M 1.4305e-5,0 960.00001,0 l 0,540 -959.999995695,0 0,-540 z"
         id="path3836"
         inkscape:connector-curvature="0"
         style="clip-rule:evenodd" /></clipPath><clipPath
       clipPathUnits="userSpaceOnUse"
       id="clipPath3846"><path
         d="M 1.4305e-5,0 960.00001,0 l 0,540 -959.999995695,0 0,-540 z"
         id="path3848"
         inkscape:connector-curvature="0"
         style="clip-rule:evenodd" /></clipPath><clipPath
       clipPathUnits="userSpaceOnUse"
       id="clipPath3894"><path
         d="M 1.4305e-5,0 960.00001,0 l 0,540 -959.999995695,0 0,-540 z"
         id="path3896"
         inkscape:connector-curvature="0"
         style="clip-rule:evenodd" /></clipPath><clipPath
       clipPathUnits="userSpaceOnUse"
       id="clipPath3906"><path
         d="M 1.4305e-5,0 960.00001,0 l 0,540 -959.999995695,0 0,-540 z"
         id="path3908"
         inkscape:connector-curvature="0"
         style="clip-rule:evenodd" /></clipPath><clipPath
       clipPathUnits="userSpaceOnUse"
       id="clipPath3918"><path
         d="M 1.4305e-5,0 960.00001,0 l 0,540 -959.999995695,0 0,-540 z"
         id="path3920"
         inkscape:connector-curvature="0"
         style="clip-rule:evenodd" /></clipPath><clipPath
       clipPathUnits="userSpaceOnUse"
       id="clipPath3930"><path
         d="M 1.4305e-5,0 960.00001,0 l 0,540 -959.999995695,0 0,-540 z"
         id="path3932"
         inkscape:connector-curvature="0"
         style="clip-rule:evenodd" /></clipPath><clipPath
       clipPathUnits="userSpaceOnUse"
       id="clipPath3942"><path
         d="M 1.4305e-5,0 960.00001,0 l 0,540 -959.999995695,0 0,-540 z"
         id="path3944"
         inkscape:connector-curvature="0"
         style="clip-rule:evenodd" /></clipPath><clipPath
       clipPathUnits="userSpaceOnUse"
       id="clipPath3954"><path
         d="M 1.4305e-5,0 960.00001,0 l 0,540 -959.999995695,0 0,-540 z"
         id="path3956"
         inkscape:connector-curvature="0"
         style="clip-rule:evenodd" /></clipPath></defs><sodipodi:namedview
     pagecolor="#ffffff"
     bordercolor="#666666"
     borderopacity="1"
     objecttolerance="10"
     gridtolerance="10"
     guidetolerance="10"
     inkscape:pageopacity="0"
     inkscape:pageshadow="2"
     inkscape:window-width="1920"
     inkscape:window-height="1005"
     id="namedview3368"
     showgrid="false"
     fit-margin-top="0"
     fit-margin-left="0"
     fit-margin-right="0"
     fit-margin-bottom="0"
     inkscape:zoom="1.1933333"
     inkscape:cx="282.99919"
     inkscape:cy="89.852786"
     inkscape:window-x="-9"
     inkscape:window-y="-9"
     inkscape:window-maximized="1"
     inkscape:current-layer="g3374" /><g
     id="g3374"
     inkscape:groupmode="layer"
     inkscape:label="ER-Diagram"
     transform="matrix(1.25,0,0,-1.25,-46.727501,472.02224)"><rect
       style="fill:#ffffff;fill-opacity:1;fill-rule:evenodd;stroke:#ffffff;stroke-width:0.96819174px;stroke-linecap:butt;stroke-linejoin:miter;stroke-opacity:1"
       id="rect3631"
       width="899.92957"
       height="180.07959"
       x="37.866096"
       y="-377.1337"
       transform="scale(1,-1)" /><path
       d="m 41.382,312.14 170.178,0"
       style="fill:none;stroke:#4472c4;stroke-width:1;stroke-linecap:butt;stroke-linejoin:round;stroke-miterlimit:10;stroke-dasharray:none;stroke-opacity:1"
       id="path3386"
       inkscape:connector-curvature="0" /><path
       d="m 41.882,333.04 0,-82.6"
       style="fill:none;stroke:#4472c4;stroke-width:1;stroke-linecap:butt;stroke-linejoin:round;stroke-miterlimit:10;stroke-dasharray:none;stroke-opacity:1"
       id="path3388"
       inkscape:connector-curvature="0" /><path
       d="m 211.06,333.04 0,-82.6"
       style="fill:none;stroke:#4472c4;stroke-width:1;stroke-linecap:butt;stroke-linejoin:round;stroke-miterlimit:10;stroke-dasharray:none;stroke-opacity:1"
       id="path3390"
       inkscape:connector-curvature="0" /><path
       d="m 41.382,332.54 170.178,0"
       style="fill:none;stroke:#4472c4;stroke-width:1;stroke-linecap:butt;stroke-linejoin:round;stroke-miterlimit:10;stroke-dasharray:none;stroke-opacity:1"
       id="path3392"
       inkscape:connector-curvature="0" /><path
       d="m 41.382,250.94 170.178,0"
       style="fill:none;stroke:#4472c4;stroke-width:1;stroke-linecap:butt;stroke-linejoin:round;stroke-miterlimit:10;stroke-dasharray:none;stroke-opacity:1"
       id="path3394"
       inkscape:connector-curvature="0" /><g
       id="g3396"><g
         id="g3398"
         clip-path="url(#clipPath3400)"><text
   transform="matrix(1,0,0,-1,49.08,319.18)"
   style="font-variant:normal;font-weight:bold;font-size:11.03999996px;font-family:'Courier New';-inkscape-font-specification:CourierNewPS-BoldMT;writing-mode:lr-tb;fill:#4472c4;fill-opacity:1;fill-rule:nonzero;stroke:none"
   id="text3404"><tspan
     x="0 6.6240001 13.20384 19.827841 26.407681 33.031681 39.611519 46.323841 52.947842 59.527679"
     y="0"
     sodipodi:role="line"
     id="tspan3406">Succession</tspan></text>

</g></g><g
       id="g3408"><g
         id="g3410"
         clip-path="url(#clipPath3412)"><text
   transform="matrix(1,0,0,-1,49.08,298.75)"
   style="font-variant:normal;font-weight:bold;font-size:11.03999996px;font-family:'Courier New';-inkscape-font-specification:CourierNewPS-BoldMT;writing-mode:lr-tb;fill:#000000;fill-opacity:1;fill-rule:nonzero;stroke:none"
   id="text3416"><tspan
     x="0 6.5999999 13.2 19.799999 26.4 33 39.599998"
     y="0"
     sodipodi:role="line"
     id="tspan3418">succ_id</tspan></text>

</g></g><g
       id="g3420"><g
         id="g3422"
         clip-path="url(#clipPath3424)"><text
   transform="matrix(1,0,0,-1,102.02,298.75)"
   style="font-variant:normal;font-weight:bold;font-size:11.03999996px;font-family:'Courier New';-inkscape-font-specification:CourierNewPS-BoldMT;writing-mode:lr-tb;fill:#000000;fill-opacity:1;fill-rule:nonzero;stroke:none"
   id="text3428"><tspan
     x="0 6.6240001 13.20384 19.827841 26.51808 33.142078 39.72192 46.345921 53.03616 59.66016 66.350403 72.974403 79.554237 86.178238 92.75808"
     y="0"
     sodipodi:role="line"
     id="tspan3430">INT Primary Key</tspan></text>

</g></g><g
       id="g3432"><g
         id="g3434"
         clip-path="url(#clipPath3436)"><text
   transform="matrix(1,0,0,-1,49.08,278.35)"
   style="font-variant:normal;font-weight:normal;font-size:11.03999996px;font-family:'Courier New';-inkscape-font-specification:CourierNewPSMT;writing-mode:lr-tb;fill:#000000;fill-opacity:1;fill-rule:nonzero;stroke:none"
   id="text3440"><tspan
     x="0 6.6240001 13.20384 19.827841 26.407681 33.031681 39.611519 46.323841 52.947842 59.527679 66.15168"
     y="0"
     sodipodi:role="line"
     id="tspan3442">predecessor</tspan></text>

</g></g><g
       id="g3444"><g
         id="g3446"
         clip-path="url(#clipPath3448)"><text
   transform="matrix(1,0,0,-1,128.54,278.35)"
   style="font-variant:normal;font-weight:normal;font-size:11.03999996px;font-family:'Courier New';-inkscape-font-specification:CourierNewPSMT;writing-mode:lr-tb;fill:#000000;fill-opacity:1;fill-rule:nonzero;stroke:none"
   id="text3452"><tspan
     x="0 6.6240001 13.20384 19.827841 26.51808 33.142078 39.832321"
     y="0"
     sodipodi:role="line"
     id="tspan3454">VARCHAR</tspan></text>

</g></g><g
       id="g3456"><g
         id="g3458"
         clip-path="url(#clipPath3460)"><text
   transform="matrix(1,0,0,-1,49.08,257.95)"
   style="font-variant:normal;font-weight:normal;font-size:11.03999996px;font-family:'Courier New';-inkscape-font-specification:CourierNewPSMT;writing-mode:lr-tb;fill:#000000;fill-opacity:1;fill-rule:nonzero;stroke:none"
   id="text3464"><tspan
     x="0 6.6240001 13.20384 19.827841 26.407681 33.031681 39.611519 46.323841 52.947842"
     y="0"
     sodipodi:role="line"
     id="tspan3466">successor</tspan></text>

</g></g><g
       id="g3468"><g
         id="g3470"
         clip-path="url(#clipPath3472)"><text
   transform="matrix(1,0,0,-1,115.22,257.95)"
   style="font-variant:normal;font-weight:normal;font-size:11.03999996px;font-family:'Courier New';-inkscape-font-specification:CourierNewPSMT;writing-mode:lr-tb;fill:#000000;fill-opacity:1;fill-rule:nonzero;stroke:none"
   id="text3476"><tspan
     x="0 6.6240001 13.31424 19.93824 26.51808 33.142078 39.832321"
     y="0"
     sodipodi:role="line"
     id="tspan3478">VARCHAR</tspan></text>

</g></g><path
       d="m 277.38,312.14 201.24,0"
       style="fill:none;stroke:#4472c4;stroke-width:1;stroke-linecap:butt;stroke-linejoin:round;stroke-miterlimit:10;stroke-dasharray:none;stroke-opacity:1"
       id="path3480"
       inkscape:connector-curvature="0" /><path
       d="m 277.88,333.04 0,-82.6"
       style="fill:none;stroke:#4472c4;stroke-width:1;stroke-linecap:butt;stroke-linejoin:round;stroke-miterlimit:10;stroke-dasharray:none;stroke-opacity:1"
       id="path3482"
       inkscape:connector-curvature="0" /><path
       d="m 478.12,333.04 0,-82.6"
       style="fill:none;stroke:#4472c4;stroke-width:1;stroke-linecap:butt;stroke-linejoin:round;stroke-miterlimit:10;stroke-dasharray:none;stroke-opacity:1"
       id="path3484"
       inkscape:connector-curvature="0" /><path
       d="m 277.38,332.54 201.24,0"
       style="fill:none;stroke:#4472c4;stroke-width:1;stroke-linecap:butt;stroke-linejoin:round;stroke-miterlimit:10;stroke-dasharray:none;stroke-opacity:1"
       id="path3486"
       inkscape:connector-curvature="0" /><path
       d="m 277.38,250.94 201.24,0"
       style="fill:none;stroke:#4472c4;stroke-width:1;stroke-linecap:butt;stroke-linejoin:round;stroke-miterlimit:10;stroke-dasharray:none;stroke-opacity:1"
       id="path3488"
       inkscape:connector-curvature="0" /><g
       id="g3490"><g
         id="g3492"
         clip-path="url(#clipPath3494)"><text
   transform="matrix(1,0,0,-1,285.12,319.18)"
   style="font-variant:normal;font-weight:bold;font-size:11.03999996px;font-family:'Courier New';-inkscape-font-specification:CourierNewPS-BoldMT;writing-mode:lr-tb;fill:#4472c4;fill-opacity:1;fill-rule:nonzero;stroke:none"
   id="text3498"><tspan
     x="0 6.6240001 13.20384 19.827841 26.407681 33.031681 39.611519 46.323841"
     y="0"
     sodipodi:role="line"
     id="tspan3500">Language</tspan></text>

</g></g><g
       id="g3502"><g
         id="g3504"
         clip-path="url(#clipPath3506)"><text
   transform="matrix(1,0,0,-1,285.12,298.75)"
   style="font-variant:normal;font-weight:bold;font-size:11.03999996px;font-family:'Courier New';-inkscape-font-specification:CourierNewPS-BoldMT;writing-mode:lr-tb;fill:#000000;fill-opacity:1;fill-rule:nonzero;stroke:none"
   id="text3510"><tspan
     x="0 6.5999999 13.2 19.799999 26.4 33 39.599998"
     y="0"
     sodipodi:role="line"
     id="tspan3512">lang_id</tspan></text>

</g></g><g
       id="g3514"><g
         id="g3516"
         clip-path="url(#clipPath3518)"><text
   transform="matrix(1,0,0,-1,338.04,298.75)"
   style="font-variant:normal;font-weight:bold;font-size:11.03999996px;font-family:'Courier New';-inkscape-font-specification:CourierNewPS-BoldMT;writing-mode:lr-tb;fill:#000000;fill-opacity:1;fill-rule:nonzero;stroke:none"
   id="text3522"><tspan
     x="0 6.6240001 13.20384 19.827841 26.51808 33.142078 39.72192 46.345921 53.03616 59.66016 66.350403 72.974403 79.554237 86.178238 92.75808 99.38208 105.96192 112.67424 119.29824"
     y="0"
     sodipodi:role="line"
     id="tspan3524">VARCHAR Primary Key</tspan></text>

</g></g><g
       id="g3526"><g
         id="g3528"
         clip-path="url(#clipPath3530)"><text
   transform="matrix(1,0,0,-1,285.12,278.35)"
   style="font-variant:normal;font-weight:normal;font-size:11.03999996px;font-family:'Courier New';-inkscape-font-specification:CourierNewPSMT;writing-mode:lr-tb;fill:#000000;fill-opacity:1;fill-rule:nonzero;stroke:none"
   id="text3534"><tspan
     x="0 6.5999999 13.2 19.799999"
     y="0"
     sodipodi:role="line"
     id="tspan3536">name</tspan></text>

</g></g><g
       id="g3538"><g
         id="g3540"
         clip-path="url(#clipPath3542)"><text
   transform="matrix(1,0,0,-1,318.12,278.35)"
   style="font-variant:normal;font-weight:normal;font-size:11.03999996px;font-family:'Courier New';-inkscape-font-specification:CourierNewPSMT;writing-mode:lr-tb;fill:#000000;fill-opacity:1;fill-rule:nonzero;stroke:none"
   id="text3546"><tspan
     x="0 6.6240001 13.31424 19.93824 26.51808 33.142078 39.72192"
     y="0"
     sodipodi:role="line"
     id="tspan3548">VARCHAR</tspan></text>

</g></g><g
       id="g3550"><g
         id="g3552"
         clip-path="url(#clipPath3554)"><text
   transform="matrix(1,0,0,-1,285.12,257.95)"
   style="font-variant:normal;font-weight:normal;font-size:11.03999996px;font-family:'Courier New';-inkscape-font-specification:CourierNewPSMT;writing-mode:lr-tb;fill:#000000;fill-opacity:1;fill-rule:nonzero;stroke:none"
   id="text3558"><tspan
     x="0 6.5999999 13.2 19.799999"
     y="0"
     sodipodi:role="line"
     id="tspan3560">year</tspan></text>

</g></g><g
       id="g3562"><g
         id="g3564"
         clip-path="url(#clipPath3566)"><text
   transform="matrix(1,0,0,-1,318.12,257.95)"
   style="font-variant:normal;font-weight:normal;font-size:11.03999996px;font-family:'Courier New';-inkscape-font-specification:CourierNewPSMT;writing-mode:lr-tb;fill:#000000;fill-opacity:1;fill-rule:nonzero;stroke:none"
   id="text3570"><tspan
     x="0 6.6240001 13.31424"
     y="0"
     sodipodi:role="line"
     id="tspan3572">INT</tspan></text>

</g></g><path
       d="m 534.79,352.94 170.18,0"
       style="fill:none;stroke:#4472c4;stroke-width:1;stroke-linecap:butt;stroke-linejoin:round;stroke-miterlimit:10;stroke-dasharray:none;stroke-opacity:1"
       id="path3574"
       inkscape:connector-curvature="0" /><path
       d="m 535.29,373.84 0,-82.6"
       style="fill:none;stroke:#4472c4;stroke-width:1;stroke-linecap:butt;stroke-linejoin:round;stroke-miterlimit:10;stroke-dasharray:none;stroke-opacity:1"
       id="path3576"
       inkscape:connector-curvature="0" /><path
       d="m 704.47,373.84 0,-82.6"
       style="fill:none;stroke:#4472c4;stroke-width:1;stroke-linecap:butt;stroke-linejoin:round;stroke-miterlimit:10;stroke-dasharray:none;stroke-opacity:1"
       id="path3578"
       inkscape:connector-curvature="0" /><path
       d="m 534.79,373.34 170.18,0"
       style="fill:none;stroke:#4472c4;stroke-width:1;stroke-linecap:butt;stroke-linejoin:round;stroke-miterlimit:10;stroke-dasharray:none;stroke-opacity:1"
       id="path3580"
       inkscape:connector-curvature="0" /><path
       d="m 534.79,291.74 170.18,0"
       style="fill:none;stroke:#4472c4;stroke-width:1;stroke-linecap:butt;stroke-linejoin:round;stroke-miterlimit:10;stroke-dasharray:none;stroke-opacity:1"
       id="path3582"
       inkscape:connector-curvature="0" /><g
       id="g3584"><g
         id="g3586"
         clip-path="url(#clipPath3588)"><text
   transform="matrix(1,0,0,-1,542.57,359.98)"
   style="font-variant:normal;font-weight:bold;font-size:11.03999996px;font-family:'Courier New';-inkscape-font-specification:CourierNewPS-BoldMT;writing-mode:lr-tb;fill:#4472c4;fill-opacity:1;fill-rule:nonzero;stroke:none"
   id="text3592"><tspan
     x="0 6.5999999 13.2 19.799999"
     y="0"
     sodipodi:role="line"
     id="tspan3594">Team</tspan></text>

</g></g><g
       id="g3596"><g
         id="g3598"
         clip-path="url(#clipPath3600)"><text
   transform="matrix(1,0,0,-1,542.57,339.58)"
   style="font-variant:normal;font-weight:bold;font-size:11.03999996px;font-family:'Courier New';-inkscape-font-specification:CourierNewPS-BoldMT;writing-mode:lr-tb;fill:#000000;fill-opacity:1;fill-rule:nonzero;stroke:none"
   id="text3604"><tspan
     x="0 6.5999999 13.2 19.799999 26.4 33 39.599998"
     y="0"
     sodipodi:role="line"
     id="tspan3606">team_id</tspan></text>

</g></g><g
       id="g3608"><g
         id="g3610"
         clip-path="url(#clipPath3612)"><text
   transform="matrix(1,0,0,-1,595.49,339.58)"
   style="font-variant:normal;font-weight:bold;font-size:11.03999996px;font-family:'Courier New';-inkscape-font-specification:CourierNewPS-BoldMT;writing-mode:lr-tb;fill:#000000;fill-opacity:1;fill-rule:nonzero;stroke:none"
   id="text3616"><tspan
     x="0 6.6240001 13.20384 19.827841 26.51808 33.142078 39.72192 46.345921 53.03616 59.66016 66.350403 72.974403 79.554237 86.178238 92.75808"
     y="0"
     sodipodi:role="line"
     id="tspan3618">INT Primary Key</tspan></text>

</g></g><g
       id="g3620"><g
         id="g3622"
         clip-path="url(#clipPath3624)"><text
   transform="matrix(1,0,0,-1,542.57,319.18)"
   style="font-variant:normal;font-weight:normal;font-size:11.03999996px;font-family:'Courier New';-inkscape-font-specification:CourierNewPSMT;writing-mode:lr-tb;fill:#000000;fill-opacity:1;fill-rule:nonzero;stroke:none"
   id="text3628"><tspan
     x="0 6.5999999 13.2 19.799999 26.4 33 39.599998"
     y="0"
     sodipodi:role="line"
     id="tspan3630">lang_id</tspan></text>

</g></g><g
       id="g3632"><g
         id="g3634"
         clip-path="url(#clipPath3636)"><text
   transform="matrix(1,0,0,-1,595.49,319.18)"
   style="font-variant:normal;font-weight:normal;font-size:11.03999996px;font-family:'Courier New';-inkscape-font-specification:CourierNewPSMT;writing-mode:lr-tb;fill:#000000;fill-opacity:1;fill-rule:nonzero;stroke:none"
   id="text3640"><tspan
     x="0 6.6240001 13.20384 19.827841 26.51808 33.142078 39.72192"
     y="0"
     sodipodi:role="line"
     id="tspan3642">VARCHAR</tspan></text>

</g></g><g
       id="g3644"><g
         id="g3646"
         clip-path="url(#clipPath3648)"><text
   transform="matrix(1,0,0,-1,542.57,298.75)"
   style="font-variant:normal;font-weight:normal;font-size:11.03999996px;font-family:'Courier New';-inkscape-font-specification:CourierNewPSMT;writing-mode:lr-tb;fill:#000000;fill-opacity:1;fill-rule:nonzero;stroke:none"
   id="text3652"><tspan
     x="0 6.6240001 13.20384 19.827841 26.407681 33.031681 39.611519 46.323841 52.947842"
     y="0"
     sodipodi:role="line"
     id="tspan3654">developer</tspan></text>

</g></g><g
       id="g3656"><g
         id="g3658"
         clip-path="url(#clipPath3660)"><text
   transform="matrix(1,0,0,-1,608.69,298.75)"
   style="font-variant:normal;font-weight:normal;font-size:11.03999996px;font-family:'Courier New';-inkscape-font-specification:CourierNewPSMT;writing-mode:lr-tb;fill:#000000;fill-opacity:1;fill-rule:nonzero;stroke:none"
   id="text3664"><tspan
     x="0 6.6240001 13.31424 19.93824 26.51808 33.142078 39.832321"
     y="0"
     sodipodi:role="line"
     id="tspan3666">VARCHAR</tspan></text>

</g></g><path
       d="m 534.79,262.27 170.18,0"
       style="fill:none;stroke:#4472c4;stroke-width:1;stroke-linecap:butt;stroke-linejoin:round;stroke-miterlimit:10;stroke-dasharray:none;stroke-opacity:1"
       id="path3668"
       inkscape:connector-curvature="0" /><path
       d="m 535.29,283.17 0,-82.6"
       style="fill:none;stroke:#4472c4;stroke-width:1;stroke-linecap:butt;stroke-linejoin:round;stroke-miterlimit:10;stroke-dasharray:none;stroke-opacity:1"
       id="path3670"
       inkscape:connector-curvature="0" /><path
       d="m 704.47,283.17 0,-82.6"
       style="fill:none;stroke:#4472c4;stroke-width:1;stroke-linecap:butt;stroke-linejoin:round;stroke-miterlimit:10;stroke-dasharray:none;stroke-opacity:1"
       id="path3672"
       inkscape:connector-curvature="0" /><path
       d="m 534.79,282.67 170.18,0"
       style="fill:none;stroke:#4472c4;stroke-width:1;stroke-linecap:butt;stroke-linejoin:round;stroke-miterlimit:10;stroke-dasharray:none;stroke-opacity:1"
       id="path3674"
       inkscape:connector-curvature="0" /><path
       d="m 534.79,201.07 170.18,0"
       style="fill:none;stroke:#4472c4;stroke-width:1;stroke-linecap:butt;stroke-linejoin:round;stroke-miterlimit:10;stroke-dasharray:none;stroke-opacity:1"
       id="path3676"
       inkscape:connector-curvature="0" /><g
       id="g3678"><g
         id="g3680"
         clip-path="url(#clipPath3682)"><text
   transform="matrix(1,0,0,-1,542.57,269.28)"
   style="font-variant:normal;font-weight:bold;font-size:11.03999996px;font-family:'Courier New';-inkscape-font-specification:CourierNewPS-BoldMT;writing-mode:lr-tb;fill:#4472c4;fill-opacity:1;fill-rule:nonzero;stroke:none"
   id="text3686"><tspan
     x="0 6.6240001 13.20384 19.827841 26.407681 33.031681 39.611519 46.323841 52.947842 59.527679 66.15168"
     y="0"
     sodipodi:role="line"
     id="tspan3688">Affiliation</tspan></text>

</g></g><g
       id="g3690"><g
         id="g3692"
         clip-path="url(#clipPath3694)"><text
   transform="matrix(1,0,0,-1,542.57,248.88)"
   style="font-variant:normal;font-weight:bold;font-size:11.03999996px;font-family:'Courier New';-inkscape-font-specification:CourierNewPS-BoldMT;writing-mode:lr-tb;fill:#000000;fill-opacity:1;fill-rule:nonzero;stroke:none"
   id="text3698"><tspan
     x="0 6.5999999 13.2 19.799999 26.4 33 39.599998"
     y="0"
     sodipodi:role="line"
     id="tspan3700">affi_id</tspan></text>

</g></g><g
       id="g3702"><g
         id="g3704"
         clip-path="url(#clipPath3706)"><text
   transform="matrix(1,0,0,-1,595.49,248.88)"
   style="font-variant:normal;font-weight:bold;font-size:11.03999996px;font-family:'Courier New';-inkscape-font-specification:CourierNewPS-BoldMT;writing-mode:lr-tb;fill:#000000;fill-opacity:1;fill-rule:nonzero;stroke:none"
   id="text3710"><tspan
     x="0 6.6240001 13.20384 19.827841 26.51808 33.142078 39.72192 46.345921 53.03616 59.66016 66.350403 72.974403 79.554237 86.178238 92.75808"
     y="0"
     sodipodi:role="line"
     id="tspan3712">INT Primary Key</tspan></text>

</g></g><g
       id="g3714"><g
         id="g3716"
         clip-path="url(#clipPath3718)"><text
   transform="matrix(1,0,0,-1,542.57,228.48)"
   style="font-variant:normal;font-weight:normal;font-size:11.03999996px;font-family:'Courier New';-inkscape-font-specification:CourierNewPSMT;writing-mode:lr-tb;fill:#000000;fill-opacity:1;fill-rule:nonzero;stroke:none"
   id="text3722"><tspan
     x="0 6.5999999 13.2 19.799999 26.4 33 39.599998"
     y="0"
     sodipodi:role="line"
     id="tspan3724">lang_id</tspan></text>

</g></g><g
       id="g3726"><g
         id="g3728"
         clip-path="url(#clipPath3730)"><text
   transform="matrix(1,0,0,-1,595.49,228.48)"
   style="font-variant:normal;font-weight:normal;font-size:11.03999996px;font-family:'Courier New';-inkscape-font-specification:CourierNewPSMT;writing-mode:lr-tb;fill:#000000;fill-opacity:1;fill-rule:nonzero;stroke:none"
   id="text3734"><tspan
     x="0 6.6240001 13.20384 19.827841 26.51808 33.142078 39.72192"
     y="0"
     sodipodi:role="line"
     id="tspan3736">VARCHAR</tspan></text>

</g></g><g
       id="g3738"><g
         id="g3740"
         clip-path="url(#clipPath3742)"><text
   transform="matrix(1,0,0,-1,542.57,208.08)"
   style="font-variant:normal;font-weight:normal;font-size:11.03999996px;font-family:'Courier New';-inkscape-font-specification:CourierNewPSMT;writing-mode:lr-tb;fill:#000000;fill-opacity:1;fill-rule:nonzero;stroke:none"
   id="text3746"><tspan
     x="0 6.5999999 13.2 19.799999 26.4 33 39.599998"
     y="0"
     sodipodi:role="line"
     id="tspan3748">company</tspan></text>

</g></g><g
       id="g3750"><g
         id="g3752"
         clip-path="url(#clipPath3754)"><text
   transform="matrix(1,0,0,-1,595.49,208.08)"
   style="font-variant:normal;font-weight:normal;font-size:11.03999996px;font-family:'Courier New';-inkscape-font-specification:CourierNewPSMT;writing-mode:lr-tb;fill:#000000;fill-opacity:1;fill-rule:nonzero;stroke:none"
   id="text3758"><tspan
     x="0 6.6240001 13.20384 19.827841 26.51808 33.142078 39.72192"
     y="0"
     sodipodi:role="line"
     id="tspan3760">VARCHAR</tspan></text>

</g></g><path
       d="m 755.03,341.36 178.65,0"
       style="fill:none;stroke:#4472c4;stroke-width:1;stroke-linecap:butt;stroke-linejoin:round;stroke-miterlimit:10;stroke-dasharray:none;stroke-opacity:1"
       id="path3762"
       inkscape:connector-curvature="0" /><path
       d="m 755.53,362.26 0,-41.8"
       style="fill:none;stroke:#4472c4;stroke-width:1;stroke-linecap:butt;stroke-linejoin:round;stroke-miterlimit:10;stroke-dasharray:none;stroke-opacity:1"
       id="path3764"
       inkscape:connector-curvature="0" /><path
       d="m 933.18,362.26 0,-41.8"
       style="fill:none;stroke:#4472c4;stroke-width:1;stroke-linecap:butt;stroke-linejoin:round;stroke-miterlimit:10;stroke-dasharray:none;stroke-opacity:1"
       id="path3766"
       inkscape:connector-curvature="0" /><path
       d="m 755.03,361.76 178.65,0"
       style="fill:none;stroke:#4472c4;stroke-width:1;stroke-linecap:butt;stroke-linejoin:round;stroke-miterlimit:10;stroke-dasharray:none;stroke-opacity:1"
       id="path3768"
       inkscape:connector-curvature="0" /><path
       d="m 755.03,320.96 178.65,0"
       style="fill:none;stroke:#4472c4;stroke-width:1;stroke-linecap:butt;stroke-linejoin:round;stroke-miterlimit:10;stroke-dasharray:none;stroke-opacity:1"
       id="path3770"
       inkscape:connector-curvature="0" /><g
       id="g3772"><g
         id="g3774"
         clip-path="url(#clipPath3776)"><text
   transform="matrix(1,0,0,-1,762.84,348.41)"
   style="font-variant:normal;font-weight:bold;font-size:11.06400013px;font-family:'Courier New';-inkscape-font-specification:CourierNewPS-BoldMT;writing-mode:lr-tb;fill:#4472c4;fill-opacity:1;fill-rule:nonzero;stroke:none"
   id="text3780"><tspan
     x="0 6.6052079 13.210416 19.815624 26.420832 33.026039 39.631248 46.336033 52.941238"
     y="0"
     sodipodi:role="line"
     id="tspan3782">Developer</tspan></text>

</g></g><g
       id="g3784"><g
         id="g3786"
         clip-path="url(#clipPath3788)"><text
   transform="matrix(1,0,0,-1,762.84,327.98)"
   style="font-variant:normal;font-weight:bold;font-size:11.03999996px;font-family:'Courier New';-inkscape-font-specification:CourierNewPS-BoldMT;writing-mode:lr-tb;fill:#000000;fill-opacity:1;fill-rule:nonzero;stroke:none"
   id="text3792"><tspan
     x="0 6.5999999 13.2 19.799999"
     y="0"
     sodipodi:role="line"
     id="tspan3794">name</tspan></text>

</g></g><g
       id="g3796"><g
         id="g3798"
         clip-path="url(#clipPath3800)"><text
   transform="matrix(1,0,0,-1,795.84,327.98)"
   style="font-variant:normal;font-weight:bold;font-size:11.03999996px;font-family:'Courier New';-inkscape-font-specification:CourierNewPS-BoldMT;writing-mode:lr-tb;fill:#000000;fill-opacity:1;fill-rule:nonzero;stroke:none"
   id="text3804"><tspan
     x="0 6.6240001 13.31424 19.93824 26.51808 33.142078 39.72192 46.434238 53.058239 59.638081 66.262077 72.952316 79.576317 86.266563 92.890556 99.470398 106.0944 112.67424 119.29824"
     y="0"
     sodipodi:role="line"
     id="tspan3806">VARCHAR Primary Key</tspan></text>

</g></g><path
       d="m 755.03,262.27 178.65,0"
       style="fill:none;stroke:#4472c4;stroke-width:1;stroke-linecap:butt;stroke-linejoin:round;stroke-miterlimit:10;stroke-dasharray:none;stroke-opacity:1"
       id="path3808"
       inkscape:connector-curvature="0" /><path
       d="m 755.53,283.17 0,-41.8"
       style="fill:none;stroke:#4472c4;stroke-width:1;stroke-linecap:butt;stroke-linejoin:round;stroke-miterlimit:10;stroke-dasharray:none;stroke-opacity:1"
       id="path3810"
       inkscape:connector-curvature="0" /><path
       d="m 933.18,283.17 0,-41.8"
       style="fill:none;stroke:#4472c4;stroke-width:1;stroke-linecap:butt;stroke-linejoin:round;stroke-miterlimit:10;stroke-dasharray:none;stroke-opacity:1"
       id="path3812"
       inkscape:connector-curvature="0" /><path
       d="m 755.03,282.67 178.65,0"
       style="fill:none;stroke:#4472c4;stroke-width:1;stroke-linecap:butt;stroke-linejoin:round;stroke-miterlimit:10;stroke-dasharray:none;stroke-opacity:1"
       id="path3814"
       inkscape:connector-curvature="0" /><path
       d="m 755.03,241.87 178.65,0"
       style="fill:none;stroke:#4472c4;stroke-width:1;stroke-linecap:butt;stroke-linejoin:round;stroke-miterlimit:10;stroke-dasharray:none;stroke-opacity:1"
       id="path3816"
       inkscape:connector-curvature="0" /><g
       id="g3818"><g
         id="g3820"
         clip-path="url(#clipPath3822)"><text
   transform="matrix(1,0,0,-1,762.84,269.28)"
   style="font-variant:normal;font-weight:bold;font-size:11.03999996px;font-family:'Courier New';-inkscape-font-specification:CourierNewPS-BoldMT;writing-mode:lr-tb;fill:#4472c4;fill-opacity:1;fill-rule:nonzero;stroke:none"
   id="text3826"><tspan
     x="0 6.5999999 13.2 19.799999 26.4 33 39.599998"
     y="0"
     sodipodi:role="line"
     id="tspan3828">Company</tspan></text>

</g></g><g
       id="g3830"><g
         id="g3832"
         clip-path="url(#clipPath3834)"><text
   transform="matrix(1,0,0,-1,762.84,248.88)"
   style="font-variant:normal;font-weight:bold;font-size:11.03999996px;font-family:'Courier New';-inkscape-font-specification:CourierNewPS-BoldMT;writing-mode:lr-tb;fill:#000000;fill-opacity:1;fill-rule:nonzero;stroke:none"
   id="text3838"><tspan
     x="0 6.5999999 13.2 19.799999"
     y="0"
     sodipodi:role="line"
     id="tspan3840">name</tspan></text>

</g></g><g
       id="g3842"><g
         id="g3844"
         clip-path="url(#clipPath3846)"><text
   transform="matrix(1,0,0,-1,795.84,248.88)"
   style="font-variant:normal;font-weight:bold;font-size:11.03999996px;font-family:'Courier New';-inkscape-font-specification:CourierNewPS-BoldMT;writing-mode:lr-tb;fill:#000000;fill-opacity:1;fill-rule:nonzero;stroke:none"
   id="text3850"><tspan
     x="0 6.6240001 13.31424 19.93824 26.51808 33.142078 39.72192 46.434238 53.058239 59.638081 66.262077 72.952316 79.576317 86.266563 92.890556 99.470398 106.0944 112.67424 119.29824"
     y="0"
     sodipodi:role="line"
     id="tspan3852">VARCHAR Primary Key</tspan></text>

</g></g><path
       d="m 205.68,262.26 c 0,3.55 2.85,6.42 6.36,6.42 3.51,0 6.36,-2.87 6.36,-6.42 0,-3.55 -2.85,-6.42 -6.36,-6.42 -3.51,0 -6.36,2.87 -6.36,6.42 z"
       style="fill:#d9d9d9;fill-opacity:1;fill-rule:evenodd;stroke:none"
       id="path3854"
       inkscape:connector-curvature="0" /><path
       d="m 205.68,281.04 c 0,3.51 2.85,6.36 6.36,6.36 3.51,0 6.36,-2.85 6.36,-6.36 0,-3.51 -2.85,-6.36 -6.36,-6.36 -3.51,0 -6.36,2.85 -6.36,6.36 z"
       style="fill:#d9d9d9;fill-opacity:1;fill-rule:evenodd;stroke:none"
       id="path3856"
       inkscape:connector-curvature="0" /><path
       d="m 748.92,330 c 0,3.51 2.85,6.36 6.36,6.36 3.51,0 6.36,-2.85 6.36,-6.36 0,-3.51 -2.85,-6.36 -6.36,-6.36 -3.51,0 -6.36,2.85 -6.36,6.36 z"
       style="fill:#d9d9d9;fill-opacity:1;fill-rule:evenodd;stroke:none"
       id="path3858"
       inkscape:connector-curvature="0" /><path
       d="m 270.6,305.28 c 0,3.51 2.85,6.36 6.36,6.36 3.51,0 6.36,-2.85 6.36,-6.36 0,-3.51 -2.85,-6.36 -6.36,-6.36 -3.51,0 -6.36,2.85 -6.36,6.36 z"
       style="fill:#d9d9d9;fill-opacity:1;fill-rule:evenodd;stroke:none"
       id="path3860"
       inkscape:connector-curvature="0" /><path
       d="m 471.48,304.8 c 0,3.51 2.85,6.36 6.36,6.36 3.51,0 6.36,-2.85 6.36,-6.36 0,-3.51 -2.85,-6.36 -6.36,-6.36 -3.51,0 -6.36,2.85 -6.36,6.36 z"
       style="fill:#d9d9d9;fill-opacity:1;fill-rule:evenodd;stroke:none"
       id="path3862"
       inkscape:connector-curvature="0" /><path
       d="m 528.48,322.68 c 0,3.51 2.85,6.36 6.36,6.36 3.51,0 6.36,-2.85 6.36,-6.36 0,-3.51 -2.85,-6.36 -6.36,-6.36 -3.51,0 -6.36,2.85 -6.36,6.36 z"
       style="fill:#d9d9d9;fill-opacity:1;fill-rule:evenodd;stroke:none"
       id="path3864"
       inkscape:connector-curvature="0" /><path
       d="m 527.88,231.78 c 0,3.55 2.85,6.42 6.36,6.42 3.51,0 6.36,-2.87 6.36,-6.42 0,-3.55 -2.85,-6.42 -6.36,-6.42 -3.51,0 -6.36,2.87 -6.36,6.42 z"
       style="fill:#d9d9d9;fill-opacity:1;fill-rule:evenodd;stroke:none"
       id="path3866"
       inkscape:connector-curvature="0" /><path
       d="m 748.08,251.46 c 0,3.55 2.85,6.42 6.36,6.42 3.51,0 6.36,-2.87 6.36,-6.42 0,-3.55 -2.85,-6.42 -6.36,-6.42 -3.51,0 -6.36,2.87 -6.36,6.42 z"
       style="fill:#d9d9d9;fill-opacity:1;fill-rule:evenodd;stroke:none"
       id="path3868"
       inkscape:connector-curvature="0" /><path
       d="m 698.16,302.28 c 0,3.51 2.85,6.36 6.36,6.36 3.51,0 6.36,-2.85 6.36,-6.36 0,-3.51 -2.85,-6.36 -6.36,-6.36 -3.51,0 -6.36,2.85 -6.36,6.36 z"
       style="fill:#d9d9d9;fill-opacity:1;fill-rule:evenodd;stroke:none"
       id="path3870"
       inkscape:connector-curvature="0" /><path
       d="m 698.16,213.48 c 0,3.51 2.85,6.36 6.36,6.36 3.51,0 6.36,-2.85 6.36,-6.36 0,-3.51 -2.85,-6.36 -6.36,-6.36 -3.51,0 -6.36,2.85 -6.36,6.36 z"
       style="fill:#d9d9d9;fill-opacity:1;fill-rule:evenodd;stroke:none"
       id="path3872"
       inkscape:connector-curvature="0" /><path
       d="m 710.88,302.25 19.06,0 0,27.75 19.06,0"
       style="fill:none;stroke:#000000;stroke-width:0.47999999;stroke-linecap:butt;stroke-linejoin:miter;stroke-miterlimit:8;stroke-dasharray:none;stroke-opacity:1"
       id="path3874"
       inkscape:connector-curvature="0" /><path
       d="m 710.88,213.45 18.65,0 0,37.95 18.65,0"
       style="fill:none;stroke:#000000;stroke-width:0.47999999;stroke-linecap:butt;stroke-linejoin:miter;stroke-miterlimit:8;stroke-dasharray:none;stroke-opacity:1"
       id="path3876"
       inkscape:connector-curvature="0" /><path
       d="m 484.2,304.84 22.1,0 0,17.84 22.1,0"
       style="fill:none;stroke:#000000;stroke-width:0.47999999;stroke-linecap:butt;stroke-linejoin:miter;stroke-miterlimit:8;stroke-dasharray:none;stroke-opacity:1"
       id="path3878"
       inkscape:connector-curvature="0" /><path
       d="m 218.4,281 22.58,0 0,24.28 29.64,0"
       style="fill:none;stroke:#000000;stroke-width:0.47999999;stroke-linecap:butt;stroke-linejoin:miter;stroke-miterlimit:8;stroke-dasharray:none;stroke-opacity:1"
       id="path3880"
       inkscape:connector-curvature="0" /><path
       d="m 218.4,262.28 37.9,0 0,38.08 14.74,0"
       style="fill:none;stroke:#000000;stroke-width:0.47999999;stroke-linecap:butt;stroke-linejoin:miter;stroke-miterlimit:8;stroke-dasharray:none;stroke-opacity:1"
       id="path3882"
       inkscape:connector-curvature="0" /><path
       d="m 471.96,300.84 c 0,3.51 2.85,6.36 6.36,6.36 3.51,0 6.36,-2.85 6.36,-6.36 0,-3.51 -2.85,-6.36 -6.36,-6.36 -3.51,0 -6.36,2.85 -6.36,6.36 z"
       style="fill:#d9d9d9;fill-opacity:1;fill-rule:evenodd;stroke:none"
       id="path3884"
       inkscape:connector-curvature="0" /><path
       d="m 527.96,231.78 -21.64,0 0,69.06 -21.64,0"
       style="fill:none;stroke:#000000;stroke-width:0.47999999;stroke-linecap:butt;stroke-linejoin:miter;stroke-miterlimit:8;stroke-dasharray:none;stroke-opacity:1"
       id="path3886"
       inkscape:connector-curvature="0" /><path
       d="m 270.96,300.36 c 0,3.51 2.85,6.36 6.36,6.36 3.51,0 6.36,-2.85 6.36,-6.36 0,-3.51 -2.85,-6.36 -6.36,-6.36 -3.51,0 -6.36,2.85 -6.36,6.36 z"
       style="fill:#d9d9d9;fill-opacity:1;fill-rule:evenodd;stroke:none"
       id="path3888"
       inkscape:connector-curvature="0" /><g
       id="g3890"><g
         id="g3892"
         clip-path="url(#clipPath3894)"><text
   transform="matrix(1,0,0,-1,231.1,249.46)"
   style="font-variant:normal;font-weight:normal;font-size:12px;font-family:'Courier New';-inkscape-font-specification:CourierNewPSMT;writing-mode:lr-tb;fill:#000000;fill-opacity:1;fill-rule:nonzero;stroke:none"
   id="text3898"><tspan
     x="0 7.2000003 14.400001"
     y="0"
     sodipodi:role="line"
     id="tspan3900">n:1</tspan></text>

</g></g><g
       id="g3902"><g
         id="g3904"
         clip-path="url(#clipPath3906)"><text
   transform="matrix(1,0,0,-1,244.03,310.8)"
   style="font-variant:normal;font-weight:normal;font-size:12px;font-family:'Courier New';-inkscape-font-specification:CourierNewPSMT;writing-mode:lr-tb;fill:#000000;fill-opacity:1;fill-rule:nonzero;stroke:none"
   id="text3910"><tspan
     x="0 7.2000003 14.400001"
     y="0"
     sodipodi:role="line"
     id="tspan3912">n:1</tspan></text>

</g></g><g
       id="g3914"><g
         id="g3916"
         clip-path="url(#clipPath3918)"><text
   transform="matrix(1,0,0,-1,729.24,333.86)"
   style="font-variant:normal;font-weight:normal;font-size:12px;font-family:'Courier New';-inkscape-font-specification:CourierNewPSMT;writing-mode:lr-tb;fill:#000000;fill-opacity:1;fill-rule:nonzero;stroke:none"
   id="text3922"><tspan
     x="0 7.2000003 14.400001"
     y="0"
     sodipodi:role="line"
     id="tspan3924">n:1</tspan></text>

</g></g><g
       id="g3926"><g
         id="g3928"
         clip-path="url(#clipPath3930)"><text
   transform="matrix(1,0,0,-1,728.9,254.5)"
   style="font-variant:normal;font-weight:normal;font-size:12px;font-family:'Courier New';-inkscape-font-specification:CourierNewPSMT;writing-mode:lr-tb;fill:#000000;fill-opacity:1;fill-rule:nonzero;stroke:none"
   id="text3934"><tspan
     x="0 7.2000003 14.400001"
     y="0"
     sodipodi:role="line"
     id="tspan3936">n:1</tspan></text>

</g></g><g
       id="g3938"><g
         id="g3940"
         clip-path="url(#clipPath3942)"><text
   transform="matrix(1,0,0,-1,505.78,327.36)"
   style="font-variant:normal;font-weight:normal;font-size:12px;font-family:'Courier New';-inkscape-font-specification:CourierNewPSMT;writing-mode:lr-tb;fill:#000000;fill-opacity:1;fill-rule:nonzero;stroke:none"
   id="text3946"><tspan
     x="0 7.2000003 14.400001"
     y="0"
     sodipodi:role="line"
     id="tspan3948">1:n</tspan></text>

</g></g><g
       id="g3950"><g
         id="g3952"
         clip-path="url(#clipPath3954)"><text
   transform="matrix(1,0,0,-1,507.1,218.5)"
   style="font-variant:normal;font-weight:normal;font-size:12px;font-family:'Courier New';-inkscape-font-specification:CourierNewPSMT;writing-mode:lr-tb;fill:#000000;fill-opacity:1;fill-rule:nonzero;stroke:none"
   id="text3958"><tspan
     x="0 7.2000003 14.400001"
     y="0"
     sodipodi:role="line"
     id="tspan3960">1:n</tspan></text>

</g></g></g></svg>